<?xml version="1.0" encoding="UTF-8"?>
<!DOCTYPE svg PUBLIC "-//W3C//DTD SVG 1.1//EN" "http://www.w3.org/Graphics/SVG/1.1/DTD/svg11.dtd">
<svg xmlns="http://www.w3.org/2000/svg" version="1.1" width="512px" height="512px" style="shape-rendering:geometricPrecision; text-rendering:geometricPrecision; image-rendering:optimizeQuality; fill-rule:evenodd; clip-rule:evenodd" xmlns:xlink="http://www.w3.org/1999/xlink">
<g><path style="opacity:1" fill="#f42c2c" d="M 236.5,-0.5 C 249.5,-0.5 262.5,-0.5 275.5,-0.5C 311.024,3.89518 343.024,16.8952 371.5,38.5C 432.143,90.5961 453.977,155.929 437,234.5C 431.236,256.689 421.736,277.023 408.5,295.5C 400.5,305.833 392.5,316.167 384.5,326.5C 365.833,350.5 347.167,374.5 328.5,398.5C 320.351,408.131 312.685,418.131 305.5,428.5C 296.739,439.684 287.739,450.684 278.5,461.5C 237.02,408.569 195.52,355.569 154,302.5C 105.955,229.524 99.2882,152.858 134,72.5C 143.443,53.9199 154.61,36.5866 167.5,20.5C 189.317,9.30035 212.317,2.30035 236.5,-0.5 Z"/></g>
<g><path style="opacity:1" fill="#ab2538" d="M 167.5,20.5 C 154.61,36.5866 143.443,53.9199 134,72.5C 99.2882,152.858 105.955,229.524 154,302.5C 195.52,355.569 237.02,408.569 278.5,461.5C 273.047,468.792 267.381,475.958 261.5,483C 254.695,486.101 249.195,484.601 245,478.5C 239.963,471.068 234.463,464.068 228.5,457.5C 218.971,444.431 208.971,431.764 198.5,419.5C 198.672,418.508 198.338,417.842 197.5,417.5C 195.397,414.28 193.064,411.28 190.5,408.5C 190.5,407.833 190.167,407.5 189.5,407.5C 182.183,397.521 174.517,387.854 166.5,378.5C 166.5,378.167 166.5,377.833 166.5,377.5C 153.136,360.476 139.803,343.476 126.5,326.5C 118.833,316.5 111.167,306.5 103.5,296.5C 103.5,295.833 103.167,295.5 102.5,295.5C 66.4623,240.966 58.9623,182.632 80,120.5C 93.1226,87.8904 113.289,60.557 140.5,38.5C 148.933,31.7488 157.933,25.7488 167.5,20.5 Z"/></g>
<g><path style="opacity:0.989" fill="#ebb602" d="M 140.5,38.5 C 113.289,60.557 93.1226,87.8904 80,120.5C 58.9623,182.632 66.4623,240.966 102.5,295.5C 89.4957,295.333 76.4957,295.5 63.5,296C 60.8293,297.25 58.6626,299.083 57,301.5C 56.8326,338.669 56.3326,375.669 55.5,412.5C 8.71,348.389 -5.79,277.389 12,199.5C 31.4338,126.926 74.2671,73.2589 140.5,38.5 Z"/></g>
<g><path style="opacity:0.99" fill="#ecb601" d="M 371.5,38.5 C 448.855,81.0918 493.355,146.425 505,234.5C 511.304,300.985 494.47,360.651 454.5,413.5C 454.667,376.498 454.5,339.498 454,302.5C 452.437,299.272 449.937,297.105 446.5,296C 433.838,295.5 421.171,295.333 408.5,295.5C 421.736,277.023 431.236,256.689 437,234.5C 453.977,155.929 432.143,90.5961 371.5,38.5 Z"/></g>
<g><path style="opacity:1" fill="#ab2638" d="M 241.5,50.5 C 297.23,47.7759 339.397,70.1093 368,117.5C 391.44,166.535 387.44,213.201 356,257.5C 320.448,298.527 275.948,313.36 222.5,302C 178.66,288.826 149.16,260.659 134,217.5C 117.734,153.23 137.234,103.063 192.5,67C 208.093,58.863 224.427,53.363 241.5,50.5 Z"/></g>
<g><path style="opacity:1" fill="#f6e3af" d="M 242.5,104.5 C 237.167,104.5 231.833,104.5 226.5,104.5C 226.163,100.692 226.663,97.0257 228,93.5C 232.333,89.5 236.667,89.5 241,93.5C 242.337,97.0257 242.837,100.692 242.5,104.5 Z"/></g>
<g><path style="opacity:1" fill="#fdf1f0" d="M 348.5,155.5 C 338.3,164.379 326.634,166.879 313.5,163C 302.805,158.134 295.971,149.967 293,138.5C 289.425,122.144 291.925,106.811 300.5,92.5C 301.567,109.663 302.401,126.996 303,144.5C 305.075,146.648 307.408,146.982 310,145.5C 310.973,130.164 311.973,114.831 313,99.5C 316.333,87.5 319.667,87.5 323,99.5C 324.029,114.831 325.029,130.164 326,145.5C 328,146.833 330,146.833 332,145.5C 333.316,127.57 334.482,109.57 335.5,91.5C 337.858,93.0243 339.691,95.0243 341,97.5C 351.168,116.09 353.668,135.424 348.5,155.5 Z"/></g>
<g><path style="opacity:1" fill="#f6e4af" d="M 300.5,92.5 C 291.925,106.811 289.425,122.144 293,138.5C 295.971,149.967 302.805,158.134 313.5,163C 326.634,166.879 338.3,164.379 348.5,155.5C 345.811,165.694 339.645,173.027 330,177.5C 327.727,205.8 325.727,234.134 324,262.5C 321.037,266.892 317.37,267.559 313,264.5C 310.278,235.578 307.945,206.578 306,177.5C 293.578,171.331 286.578,161.331 285,147.5C 282.895,126.833 287.895,108.166 300,91.5C 300.399,91.7284 300.565,92.0618 300.5,92.5 Z"/></g>
<g><path style="opacity:1" fill="#f6e5b0" d="M 197.5,104.5 C 192.302,107.227 189.968,111.56 190.5,117.5C 180.9,115.283 176.4,118.95 177,128.5C 177.785,130.286 178.951,131.786 180.5,133C 173.174,133.5 165.841,133.666 158.5,133.5C 152.595,130.813 151.095,126.48 154,120.5C 155.129,118.859 156.629,117.859 158.5,117.5C 161.167,117.5 163.833,117.5 166.5,117.5C 166.5,116.167 166.5,114.833 166.5,113.5C 167.524,109.638 169.857,106.805 173.5,105C 181.493,104.5 189.493,104.334 197.5,104.5 Z"/></g>
<g><path style="opacity:1" fill="#fdf1f1" d="M 197.5,104.5 C 207.167,104.5 216.833,104.5 226.5,104.5C 231.833,104.5 237.167,104.5 242.5,104.5C 248.105,103.908 253.439,104.741 258.5,107C 260.902,109.703 262.235,112.87 262.5,116.5C 272.039,115.869 276.206,120.203 275,129.5C 273.457,131.378 271.624,132.878 269.5,134C 232.331,134.831 195.331,134.664 158.5,133.5C 165.841,133.666 173.174,133.5 180.5,133C 178.951,131.786 177.785,130.286 177,128.5C 176.4,118.95 180.9,115.283 190.5,117.5C 189.968,111.56 192.302,107.227 197.5,104.5 Z"/></g>
<g><path style="opacity:1" fill="#d18473" d="M 166.5,113.5 C 166.5,114.833 166.5,116.167 166.5,117.5C 163.833,117.5 161.167,117.5 158.5,117.5C 160.607,116.532 162.941,116.198 165.5,116.5C 165.263,115.209 165.596,114.209 166.5,113.5 Z"/></g>
<g><path style="opacity:1" fill="#f6e5af" d="M 168.5,146.5 C 174.5,146.5 180.5,146.5 186.5,146.5C 190.333,171.826 194.166,197.159 198,222.5C 202.494,239.836 213.661,247.336 231.5,245C 241.208,242.448 247.875,236.614 251.5,227.5C 249.938,238.146 248.438,248.813 247,259.5C 246.167,263 244,265.167 240.5,266C 231.667,266.167 222.833,266.333 214,266.5C 204.404,266.642 194.904,266.142 185.5,265C 183.951,263.786 182.785,262.286 182,260.5C 176.007,223.217 170.674,185.883 166,148.5C 166.417,147.244 167.25,146.577 168.5,146.5 Z"/></g>
<g><path style="opacity:1" fill="#fef3f3" d="M 168.5,146.5 C 199.373,145.171 230.373,145.171 261.5,146.5C 262.937,148.021 263.604,149.855 263.5,152C 259.874,177.253 255.874,202.42 251.5,227.5C 247.875,236.614 241.208,242.448 231.5,245C 213.661,247.336 202.494,239.836 198,222.5C 194.166,197.159 190.333,171.826 186.5,146.5C 180.5,146.5 174.5,146.5 168.5,146.5 Z"/></g>
<g><path style="opacity:1" fill="#f7e6b0" d="M 102.5,295.5 C 103.167,295.5 103.5,295.833 103.5,296.5C 100.725,297.312 98.5579,298.979 97,301.5C 96.5003,309.827 96.3336,318.16 96.5,326.5C 92.3966,325.769 88.8966,326.769 86,329.5C 85.3333,344.5 85.3333,359.5 86,374.5C 88.5463,377.186 91.713,378.186 95.5,377.5C 95.5,387.833 95.5,398.167 95.5,408.5C 91.713,407.814 88.5463,408.814 86,411.5C 85.5001,422.828 85.3335,434.162 85.5,445.5C 74.0511,435.722 64.0511,424.722 55.5,412.5C 56.3326,375.669 56.8326,338.669 57,301.5C 58.6626,299.083 60.8293,297.25 63.5,296C 76.4957,295.5 89.4957,295.333 102.5,295.5 Z"/></g>
<g><path style="opacity:0.997" fill="#fef4f4" d="M 408.5,295.5 C 421.171,295.333 433.838,295.5 446.5,296C 449.937,297.105 452.437,299.272 454,302.5C 454.5,339.498 454.667,376.498 454.5,413.5C 445.615,426.057 435.281,437.39 423.5,447.5C 423.666,442.489 423.499,437.489 423,432.5C 422.5,430.667 421.333,429.5 419.5,429C 404.074,428.032 388.741,428.366 373.5,430C 372.508,447.423 372.175,464.923 372.5,482.5C 362.849,488.489 352.515,493.156 341.5,496.5C 341.667,474.831 341.5,453.164 341,431.5C 340.167,430.667 339.333,429.833 338.5,429C 327.505,428.5 316.505,428.333 305.5,428.5C 312.685,418.131 320.351,408.131 328.5,398.5C 359.502,398.667 390.502,398.5 421.5,398C 422.416,397.626 423.25,397.126 424,396.5C 425.645,374.255 425.978,351.922 425,329.5C 424.097,328.299 422.931,327.465 421.5,327C 409.171,326.5 396.838,326.333 384.5,326.5C 392.5,316.167 400.5,305.833 408.5,295.5 Z"/></g>
<g><path style="opacity:1" fill="#fef3f3" d="M 103.5,296.5 C 111.167,306.5 118.833,316.5 126.5,326.5C 116.5,326.5 106.5,326.5 96.5,326.5C 96.3336,318.16 96.5003,309.827 97,301.5C 98.5579,298.979 100.725,297.312 103.5,296.5 Z"/></g>
<g><path style="opacity:1" fill="#fcc173" d="M 96.5,326.5 C 106.5,326.5 116.5,326.5 126.5,326.5C 139.803,343.476 153.136,360.476 166.5,377.5C 142.833,377.5 119.167,377.5 95.5,377.5C 91.713,378.186 88.5463,377.186 86,374.5C 85.3333,359.5 85.3333,344.5 86,329.5C 88.8966,326.769 92.3966,325.769 96.5,326.5 Z"/></g>
<g><path style="opacity:1" fill="#fdc274" d="M 384.5,326.5 C 396.838,326.333 409.171,326.5 421.5,327C 422.931,327.465 424.097,328.299 425,329.5C 425.978,351.922 425.645,374.255 424,396.5C 423.25,397.126 422.416,397.626 421.5,398C 390.502,398.5 359.502,398.667 328.5,398.5C 347.167,374.5 365.833,350.5 384.5,326.5 Z"/></g>
<g><path style="opacity:1" fill="#fef4f4" d="M 166.5,378.5 C 174.517,387.854 182.183,397.521 189.5,407.5C 158.5,407.5 127.5,407.5 96.5,407.5C 96.5,397.833 96.5,388.167 96.5,378.5C 119.833,378.5 143.167,378.5 166.5,378.5 Z"/></g>
<g><path style="opacity:1" fill="#feebda" d="M 95.5,377.5 C 119.167,377.5 142.833,377.5 166.5,377.5C 166.5,377.833 166.5,378.167 166.5,378.5C 143.167,378.5 119.833,378.5 96.5,378.5C 96.5,388.167 96.5,397.833 96.5,407.5C 127.5,407.5 158.5,407.5 189.5,407.5C 190.167,407.5 190.5,407.833 190.5,408.5C 158.833,408.5 127.167,408.5 95.5,408.5C 95.5,398.167 95.5,387.833 95.5,377.5 Z"/></g>
<g><path style="opacity:1" fill="#fdc273" d="M 95.5,408.5 C 127.167,408.5 158.833,408.5 190.5,408.5C 193.064,411.28 195.397,414.28 197.5,417.5C 197.831,446.671 197.498,475.671 196.5,504.5C 154.145,494.494 117.145,474.828 85.5,445.5C 85.3335,434.162 85.5001,422.828 86,411.5C 88.5463,408.814 91.713,407.814 95.5,408.5 Z"/></g>
<g><path style="opacity:1" fill="#fccd91" d="M 197.5,417.5 C 198.338,417.842 198.672,418.508 198.5,419.5C 198.5,448.167 198.5,476.833 198.5,505.5C 197.508,505.672 196.842,505.338 196.5,504.5C 197.498,475.671 197.831,446.671 197.5,417.5 Z"/></g>
<g><path style="opacity:0.995" fill="#fef4f4" d="M 198.5,419.5 C 208.971,431.764 218.971,444.431 228.5,457.5C 228.5,475.167 228.5,492.833 228.5,510.5C 218.382,509.48 208.382,507.814 198.5,505.5C 198.5,476.833 198.5,448.167 198.5,419.5 Z"/></g>
<g><path style="opacity:1" fill="#fcc274" d="M 305.5,428.5 C 316.505,428.333 327.505,428.5 338.5,429C 339.333,429.833 340.167,430.667 341,431.5C 341.5,453.164 341.667,474.831 341.5,496.5C 321.117,504.176 300.117,509.176 278.5,511.5C 263.5,511.5 248.5,511.5 233.5,511.5C 232.081,510.549 230.415,510.216 228.5,510.5C 228.5,492.833 228.5,475.167 228.5,457.5C 234.463,464.068 239.963,471.068 245,478.5C 249.195,484.601 254.695,486.101 261.5,483C 267.381,475.958 273.047,468.792 278.5,461.5C 287.739,450.684 296.739,439.684 305.5,428.5 Z"/></g>
<g><path style="opacity:1" fill="#fdc375" d="M 423.5,447.5 C 408.42,461.881 391.42,473.547 372.5,482.5C 372.175,464.923 372.508,447.423 373.5,430C 388.741,428.366 404.074,428.032 419.5,429C 421.333,429.5 422.5,430.667 423,432.5C 423.499,437.489 423.666,442.489 423.5,447.5 Z"/></g>
</svg>
